{"asset":{"generator":"glTF-Transform v4.0.1","version":"2.0"},"accessors":[{"type":"SCALAR","componentType":5123,"count":72957,"bufferView":0,"byteOffset":0},{"type":"VEC3","componentType":5126,"count":15430,"max":[0.9907812476158142,1.450862169265747,0.08056800067424774],"min":[-0.661058783531189,-1.9086415767669678,-0.07843457907438278],"bufferView":1,"byteOffset":0},{"type":"VEC3","componentType":5126,"count":15430,"bufferView":1,"byteOffset":12},{"type":"VEC2","componentType":5126,"count":15430,"bufferView":1,"byteOffset":24}],"bufferViews":[{"buffer":0,"byteOffset":0,"byteLength":145916,"target":34963},{"buffer":0,"byteOffset":145916,"byteLength":493760,"byteStride":32,"target":34962}],"samplers":[{"magFilter":9728,"minFilter":9728,"wrapS":10497,"wrapT":10497}],"textures":[{"sampler":0,"extensions":{"EXT_texture_webp":{"source":0}}},{"sampler":0,"extensions":{"EXT_texture_webp":{"source":1}}}],"images":[{"name":"PaletteBaseColor","mimeType":"image/webp","uri":"PaletteBaseColor.webp"},{"name":"PaletteMetallicRoughness","mimeType":"image/webp","uri":"PaletteMetallicRoughness.webp"}],"buffers":[{"uri":"iPhone.bin","byteLength":639676}],"materials":[{"name":"PaletteMaterial001","doubleSided":true,"pbrMetallicRoughness":{"baseColorTexture":{"index":0},"metallicRoughnessTexture":{"index":1}}}],"meshes":[{"name":"Circle.038","primitives":[{"attributes":{"POSITION":1,"NORMAL":2,"TEXCOORD_0":3},"mode":4,"material":0,"indices":0}]}],"nodes":[{"name":"iphonex","rotation":[1,0,0,0],"mesh":0}],"scenes":[{"name":"Scene","nodes":[0]}],"scene":0,"extensionsUsed":["EXT_texture_webp"],"extensionsRequired":["EXT_texture_webp"]}